<?xml version="1.0" encoding="utf-8"?>
<!-- Generator: Adobe Illustrator 25.0.1, SVG Export Plug-In . SVG Version: 6.00 Build 0)  -->
<svg version="1.1" id="图层_1" xmlns="http://www.w3.org/2000/svg" xmlns:xlink="http://www.w3.org/1999/xlink" x="0px" y="0px"
	 viewBox="0 0 935 377" style="enable-background:new 0 0 935 377;" xml:space="preserve">
<style type="text/css">
	.st0{fill:#7800F4;}
	.st1{fill:#040000;}
	.st2{fill:url(#SVGID_1_);}
	.st3{opacity:0.2;}
	.st4{fill:#533E94;}
</style>
<g>
	<path class="st0" d="M446,312.1h-11.5l-50.4-65.9v65.9h-14.2v-92.9h10.9l50.9,66.4v-66.4H446V312.1z"/>
	<path class="st0" d="M532.6,312.1h-62.9v-65.4h62.9v37h-50.4v16.9h50.4V312.1z M520.1,272.2v-13.4h-37.9v13.4H520.1z"/>
	<path class="st0" d="M546.4,246.8h10v-15.5h12.5v15.5h25.4v12h-25.4v41.9h25v11.5h-37.6v-53.4h-10v-12H546.4z"/>
	<path class="st0" d="M691.1,312.1h-78.8v-65.4h12v53.9h21v-53.9h12.5v53.9h21v-53.9h12.5v65.4H691.1z"/>
	<path class="st0" d="M773,312.1h-60.4v-65.4H773V312.1z M760.5,300.7v-41.9H725v41.9H760.5z"/>
	<path class="st0" d="M837.3,258.8h-29.4v53.4h-13v-65.4h42.5V258.8z"/>
	<path class="st0" d="M914,312.1h-15l-22-28.9h-11.5v28.9h-13v-79.8h13v38.4h12l19.9-24h14.5l-24.5,30L914,312.1z"/>
</g>
<g>
	<polygon class="st1" points="437.9,165.1 395,165.1 395,73.3 366.5,73.3 366.5,191.6 465.5,191.6 465.5,73.3 437.9,73.3 	"/>
	<path class="st1" d="M488.8,207.6h26.8v-16h56.9V105h-83.7V207.6z M546.4,130.1v36.5h-30.6v-36.5H546.4z"/>
	<polygon class="st1" points="621.2,87.1 595.6,87.1 595.6,105 584,105 584,130.1 595.6,130.1 595.6,191.6 650,191.6 650,167.1 
		621.2,167.1 621.2,130.1 650.5,130.1 650.5,105 621.2,105 	"/>
	<polygon class="st1" points="663.2,128.9 674.6,128.9 674.6,191.6 701.6,191.6 701.6,105 663.2,105 	"/>
	<polygon class="st1" points="728.6,191.6 809.4,191.6 809.4,167.1 753.7,167.1 753.7,129.6 809.4,129.6 809.4,105 728.6,105 	"/>
	<polygon class="st1" points="881.5,145.3 914.4,105 883.1,105 860.2,132.6 854.6,132.6 854.6,88.3 828.4,88.3 828.4,191.6 
		854.6,191.6 854.6,158.2 859.4,158.2 884.7,191.6 916.1,191.6 	"/>
</g>
<linearGradient id="SVGID_1_" gradientUnits="userSpaceOnUse" x1="149.6" y1="227.134" x2="149.6" y2="6.5971" gradientTransform="matrix(1 0 0 -1 0 378)">
	<stop  offset="0" style="stop-color:#040000"/>
	<stop  offset="1" style="stop-color:#322951"/>
</linearGradient>
<path class="st2" d="M157.1,377.1l-79.3-82l-28.2,27.3L12.4,284l158-152.8l116.4,120.4L157.1,377.1z M116.2,258l42.1,43.6l53-51.2
	l-42.1-43.6L116.2,258z"/>
<g class="st3">
	<polygon class="st4" points="230.2,92.3 127.3,191.8 85.2,148.3 174.5,61.9 97.6,61.9 9.6,147 126,267.4 267.4,130.8 	"/>
	<polygon class="st4" points="182.8,43.2 150.9,10.3 116.9,43.2 	"/>
</g>
<g>
	<polygon class="st0" points="220.7,82.8 117.7,182.3 75.6,138.7 164.9,52.3 88,52.3 0,137.4 116.5,257.9 257.8,121.2 	"/>
	<polygon class="st0" points="173.2,33.7 141.4,0.8 107.3,33.7 	"/>
</g>
<polygon class="st0" points="662.1,89.2 682.8,68.4 703.7,89.2 "/>
</svg>
